<svg height="512" viewBox="0 0 512 512" width="512" xmlns="http://www.w3.org/2000/svg"><path d="m496 160a40.047 40.047 0 0 0 -40-40h-48v-56a24 24 0 0 0 0-48h-80a24 24 0 0 0 0 48v56h-48a40.047 40.047 0 0 0 -40 40v16h16v-16a24.027 24.027 0 0 1 24-24h176a24.027 24.027 0 0 1 24 24v252.324a47.827 47.827 0 0 0 -79.277 43.676h-32.723v16h38.494a47.91 47.91 0 0 0 88.714-32.45 40.277 40.277 0 0 0 .792-7.55zm-176-120a8.008 8.008 0 0 1 8-8h80a8 8 0 0 1 0 16h-80a8.008 8.008 0 0 1 -8-8zm72 80h-48v-56h48zm56 360a32 32 0 1 1 32-32 32.034 32.034 0 0 1 -32 32z"/><path d="m336 160h16v88h-16z"/><path d="m384 160h16v248h-16z"/><path d="m432 160h16v224h-16z"/><path d="m288 160h16v80h-16z"/><path d="m96 296h176v16h-176z"/><path d="m56 344h256v16h-256z"/><path d="m56 392h256v16h-256z"/><path d="m96 440h176v16h-176z"/><path d="m56 496h256a40.047 40.047 0 0 0 40-40v-160a40.047 40.047 0 0 0 -40-40h-48v-32a32.034 32.034 0 0 0 -32-32h-96a32.034 32.034 0 0 0 -32 32v32h-48a40.047 40.047 0 0 0 -40 40v160a40.047 40.047 0 0 0 40 40zm280-40a24.027 24.027 0 0 1 -24 24h-8v-32h32zm-32-184h8a24.027 24.027 0 0 1 24 24v8h-32zm-184-48a16.019 16.019 0 0 1 16-16h96a16.019 16.019 0 0 1 16 16v32h-16v-24a8 8 0 0 0 -8-8h-80a8 8 0 0 0 -8 8v24h-16zm96 16v16h-64v-16zm-184 56a24.027 24.027 0 0 1 24-24h8v32h-32zm0 24h40a8 8 0 0 0 8-8v-40h208v40a8 8 0 0 0 8 8h40v112h-40a8 8 0 0 0 -8 8v40h-208v-40a8 8 0 0 0 -8-8h-40zm0 128h32v32h-8a24.027 24.027 0 0 1 -24-24z"/></svg>